<?xml version="1.0" encoding="utf-8"?>
<!-- Generator: Adobe Illustrator 16.0.0, SVG Export Plug-In . SVG Version: 6.00 Build 0)  -->
<!DOCTYPE svg PUBLIC "-//W3C//DTD SVG 1.1//EN" "http://www.w3.org/Graphics/SVG/1.1/DTD/svg11.dtd">
<svg version="1.1" id="Layer_1" xmlns="http://www.w3.org/2000/svg" xmlns:xlink="http://www.w3.org/1999/xlink" x="0px" y="0px"
	 width="500px" height="500px" viewBox="0 0 500 500" enable-background="new 0 0 500 500" xml:space="preserve">
<g>
	<path fill="#383433" d="M278.634,75.93c1.819-0.314,3.709-0.044,4.927,1.218c1.537,1.422,1.89,3.907,1.146,5.874
		c-0.237,2.044-3.395,1.697-2.838,3.979c-1.063-0.039-2.761,0.077-3.901-0.121c0.589-2.044-2.568-1.967-2.447-3.857
		c1.929,0.16,4.729,0.981,6.067-0.948c0.402-0.705,0.353-1.89,0.082-2.64c-1.185-1.73-3.62-1.537-5.752-1.537
		C276.271,76.79,277.609,76.289,278.634,75.93z M267.68,77.27c-3.428-1.653-8.393-1.185-11.147,1.416
		c-0.595,0.551-0.826,1.3-0.948,2.044c0.039,1.069,0.508,1.934,1.301,2.683c3.113,2.204,8.117,2.678,11.462,0.634
		c1.581,0.827,3.554,0.628,4.888-0.557c0.512-0.353,0.512-0.903,1.146-0.942c2.172-0.077,5.279,1.218,6.822-1.141
		c0.154-0.706,0.154-1.62-0.396-2.171c-1.818-1.262-4.453-0.788-6.706-0.744c-0.584-1.146-1.73-1.973-2.915-2.171
		C269.813,76.167,268.633,76.398,267.68,77.27z M276.271,88.301l0.121,12.41c0.083,0.435,0.513,0.556,0.826,0.749l6.072-0.083
		c0.431-0.033,0.585-0.551,0.739-0.859l-0.077-12.569l-0.392-0.479h-6.695L276.271,88.301z M277.609,101.934
		c-0.59,2.248-0.826,4.612-0.859,6.701c-1.939,0.275-3.868,0.237-5.565,0.474c-26.67,2.276-53.346,22.73-62.405,48.227
		c-11.384,29.437-3.196,63.75,20.129,84.165c21.59,20.085,56.894,25.249,82.826,12.404c28.406-13.038,45.307-42.512,43.493-73.756
		c-1.372-26.125-16.15-50.161-39.988-62.691c-9.736-5.081-20.564-8.348-31.949-8.624c-0.44-2.248-0.28-4.733-0.876-6.899H277.609z
		 M283.561,113.952c15.439,0.595,30.142,6.624,42.275,16.74c21.038,18.207,29.437,46.854,21.749,73.767
		c-5.714,21.314-23.92,40.776-45.19,47.355c-24.983,8.52-52.602,1.818-71.232-15.798c-20.691-18.988-27.667-51.334-17.021-77.624
		c9.285-25.171,36.236-43.846,62.129-44.562c0.436,0.479,0,1.025,0,1.537c-11.269,0.59-21.474,3.708-30.814,8.987
		c-25.414,14.735-39.124,43.223-33.839,73.007c3.5,23.92,23.833,47.053,47.163,53.787c28.329,8.629,57.644-0.155,76.043-23.722
		c15.605-19.501,19.032-51.103,7.284-73.486c-10.673-22.212-34.152-37.785-58.547-38.688V113.952z M283.638,116.117
		c0.474-0.083,0.832,0.275,1.146,0.275l-1.146,8.514V116.117z M276.271,116.117v11.544c-0.436-3.78-0.981-7.758-1.301-11.346
		L276.271,116.117z M304.836,120.922l-16.63,41.14c-0.463-0.948,0.595-2.21-0.59-2.915h-4.606c0.154-6.938,0.347-13.754,0.551-20.41
		c-0.634-7.412,1.339-15.016,1.967-22.345C291.997,116.79,298.968,118.283,304.836,120.922z M274.1,116.315l2.171,16.625
		l0.595,19.583c0.154,2.326,0,4.414,0.154,6.695h-4.337c-0.87,0.876-0.313,2.292-0.468,3.433l-0.077-0.116l-15.451-42.358
		C262.164,118.046,268.071,117.021,274.1,116.315z M255.938,120.454l13.99,38.297l6.733,18.757l-13.511-11.819l-22.896-32.467
		l-2.006-2.998C243.809,126.042,249.677,122.818,255.938,120.454z M305.503,121.126c5.637,2.358,11.081,5.196,16.079,9.175
		l-24.786,35.388l-14.101,12.288l2.364-5.99L305.503,121.126z M299.364,163.319l22.885-32.544c2.407,2.055,4.888,4.055,7.092,6.425
		L299.364,163.319z M237.692,130.857l20.141,28.565l2.639,3.979L230.408,137.2C232.81,134.99,235.13,132.428,237.692,130.857z
		 M329.698,137.867h0.281c5.356,5.56,9.098,11.825,12.128,18.36l-48.227,21.556c-2.204,0.942-4.529,2.127-6.612,2.833l9.925-14.178
		L329.698,137.867z M230.055,137.867l32.422,28.174c3.152,4.728,6.662,9.213,9.539,13.831l-7.092-3.703l-45.466-23.446
		C222.098,147.405,225.559,142.242,230.055,137.867z M219.178,153.395l30.064,15.479l13.594,7.098
		c3.389,2.044,7.136,3.427,10.398,5.477l-0.475,0.942l-17.489,2.204c-6.343-0.584-12.255-1.455-18.245-2.204l-25.408-2.992
		c0.744-9.263,3.18-18.046,7.368-26.003H219.178z M342.384,156.861c3.08,6.938,5.086,14.299,5.67,22.223
		c-2.904,0.231-5.588,0.711-8.228,1.063l-34.323,4.336c-6.612-0.441-12.724-1.736-19.104-2.171l-0.083-0.275
		c0.711-0.469,1.538-0.59,2.248-1.063L342.384,156.861z M282.695,165.093l4.105-0.077l0.148,0.198l-4.728,11.902L282.695,165.093z
		 M273.08,165.093l4.138-0.077c-0.077,3.78,0.981,8.122,0.193,12.172L273.08,165.093z M294.906,168.322l-8.981,12.85
		c-0.557-1.058-1.538-2.127-2.568-2.843L294.906,168.322z M265.123,168.405l11.064,9.572l0.083,0.275
		c-0.436,0.16-0.782,0.595-1.218,0.749c-0.557,0.557-1.025,1.466-1.62,1.615C270.87,176.643,267.801,172.504,265.123,168.405z
		 M348.054,179.872c0.286,3.075,0.286,6.541,0,9.61c-4.485-0.43-8.695-0.942-13.038-1.493l-26.785-3.119
		c3.967-0.347,8.111-1.141,11.736-1.532L348.054,179.872z M226.275,181.845l25.138,3.113c-2.132,0.275-4.336,0.672-6.425,0.75
		l-32.434,4.1h-1.063c-0.116-3.273-0.116-6.387,0-9.66C216.461,180.616,221.266,181.486,226.275,181.845z M301.723,184.87
		c-5.317,0.793-9.924,1.036-15.407,1.979c0.358-1.141,0.485-2.524,0.281-3.786C291.633,183.652,296.725,184.126,301.723,184.87z
		 M272.683,183.063c-0.226,1.262,0,2.722,0.199,3.786c-5.004-0.634-10.2-1.378-14.934-1.89L272.683,183.063z M312.407,186.099
		l35.536,4.177c-0.319,5.714-1.658,12.013-3.587,17.572c-1.141,2.64-1.973,5.511-3.505,7.957l-8.315-4.452l-45.735-23.838
		C295.617,187.201,303.612,183.729,312.407,186.099z M255.11,185.344c5.715,0.562,11.308,1.543,17.38,2.094l-28.847,12.845
		l-26.554,12.095c-2.948-6.778-4.728-14.068-5.472-21.75C226.347,188.854,240.056,186.958,255.11,185.344z M232.215,206.349
		l41.02-18.553c-3.659,5.119-7.169,10.315-10.674,15.401l-10.403,9.373l-22.102,19.391c-5.169-5.637-9.539-11.781-12.487-18.443
		v-0.474L232.215,206.349z M285.726,188.187l9.098,12.845c-4.21-3.312-7.912-7.015-12.012-10.2
		C283.875,190.154,284.938,189.129,285.726,188.187z M286.867,188.385l10.408,5.356l43.301,22.697
		c-2.8,5.433-6.145,10.75-10.756,15.324c-3.594-3.113-6.899-5.907-10.404-8.982l-21.749-19.11
		C293.964,198.701,290.261,193.345,286.867,188.385z M276.661,190.898c-3.979,3.312-8.155,7.257-11.935,10.327
		c2.997-4.254,6.144-8.431,8.898-12.762C274.38,189.443,275.637,190.116,276.661,190.898z M282.618,191.576l13.902,12.018
		l16.35,23.441l8.596,12.415c-5.516,4.254-11.428,7.643-17.854,9.809l-15.869-43.306c-0.397-0.744,0.032-1.813-0.794-2.358
		L282.618,191.576z M277.218,191.691c0.077,4.062,0.981,7.924,1.063,11.902l-5.868-0.083
		C274.027,199.577,275.554,195.516,277.218,191.691z M262.836,203.985l13.241-11.544c-1.416,3.659-3.08,7.29-4.342,11.07
		l-0.551,0.551c-0.193,1.377-0.744,2.601-1.257,3.862l-16.156,40.507c-5.4-2.37-10.558-5.317-15.407-8.982
		c2.843-3.901,5.361-7.885,8.238-11.748L262.836,203.985z M280.998,203.594l1.224-10.8l3.901,10.718L280.998,203.594z
		 M245.457,219.469l15.015-13.44v0.204l-22.697,32.742c-2.441-1.697-4.843-4.061-7.086-6.348v-0.275L245.457,219.469z
		 M299.237,206.151l30.104,26.202c-2.281,2.209-4.568,4.733-7.208,6.502c-2.832-4.259-5.995-8.431-8.981-12.652L299.237,206.151z
		 M270.991,207.176c0.392,1.069-0.551,2.485,0.948,2.959l7.56-0.121l-3.024,26.003l-2.095,17.297
		c-7.02-0.584-13.594-2.242-19.858-4.606L270.991,207.176z M287.539,207.446l15.33,42.204c-5.555,1.614-11.153,3.395-17.144,3.582
		l-3.03-25.062c-0.755-5.786-1.493-12.25-2.242-18.035c2.121-0.204,4.254-0.083,6.221-0.121
		C287.66,209.617,287.539,208.432,287.539,207.446z M278.358,225.734l1.62-13.434l3.378,27.618l1.62,13.517
		c-3.351,0.116-6.574,0.116-9.924,0l0.744-5.791L278.358,225.734z M230.408,88.896c1.774-0.088,3.504-3.786,5.009-0.755
		c0.942,1.031,0.706,2.645,0.193,3.786c-4.017,5.516-10.602,7.489-16.547,8.866c-1.102,0.353-2.518,0.275-3.505,0.75l0.865,2.838
		c18.239-9.142,39.361-12.536,59.292-11.352l-0.11,5.119c-18.873-0.865-40.545,2.678-57.765,11.897l1.146,4.381
		c-0.755,0.16-1.576,0.43-2.292,0.468l-0.744-3.229l-0.392-0.353c-34.991,19.7-45.477,58.316-46.221,96.458
		c-0.71-1.62-2.287-1.3-3.708-1.344c-0.71,0.237-1.173,0.904-1.614,1.421c0.512-39.007,11.936-81.525,50.127-102.211
		c-0.242-1.417-0.601-2.799-1.107-4.094c-6.662,0.193-13.715-0.166-17.617-5.951c-1.063-1.73-0.859-4.612,0.275-6.227
		c0.948-1.455,2.441-2.601,4.177-2.287C208.223,92.632,221.31,93.106,230.408,88.896z M167.799,206.977
		c0.595,0.199,0.865,0.793,1.141,1.268c1.262,3.62,0.986,6.414,1.141,10.552c2.408,0.436,4.7,0.992,6.816,2.094
		c7.725,4.056,12.222,12.14,11.626,20.609c-0.193,7.952-6.227,16.151-13.991,18.834c-7.604,3.151-16.9,0.782-22.493-4.733
		c-5.631-6.149-7.648-13.633-5.4-21.744c2.05-7.455,9.103-14.068,16.9-15.06c-0.231-3.659-0.071-7.521,0.948-10.679
		C165.044,206.74,166.576,207.021,167.799,206.977z M170.081,224.594c0.396,0.513,1.377,0.513,2.088,0.744l0.198,0.198
		c-1.218,3.427-2.992,6.739-3.306,10.403l3.78-10.123c0.986-0.044,1.851,0.783,2.716,1.339c-2.088,3.075-2.397,7.406-6.149,9.334
		c0.601,0.788,1.03-0.474,1.62-0.551c0.198,0.827-1.224,1.659-0.077,2.447c3.383-1.582,6.656-3.51,10.084-5.009
		c0.793,1.421,1.262,2.959,1.416,4.65c-3.703,0.32-7.362,3.037-11.142,1.025c-0.281,0.904,1.179,0.59,1.687,1.025
		c-0.424,0.507-1.73,0.16-1.769,1.058c3.703-1.929,7.444,0.672,11.147,1.025c0.121,1.587-0.584,3.042-1.141,4.453h-0.468
		l-9.654-4.805c-1.185,0.672-0.121,1.582,0.116,2.447v0.077c-0.589,0.11-1.185-1.025-1.818-0.546
		c3.824,1.846,4.105,6.183,6.348,9.175c-0.865,0.59-1.73,1.262-2.76,1.499l-4.056-10.288h-0.474
		c1.069,3.472,2.722,6.977,4.061,10.48c-0.942,0.634-2.171,0.75-3.306,0.948c-0.628-2.717-1.377-5.356-1.896-8.117l0.672-3.042
		c-0.909-0.27-0.518,1.113-0.948,1.62c-0.711-0.507,0-2.204-1.3-1.807h-0.314l-3.868,10.397c-1.063-0.275-2.011-0.82-2.909-1.421
		c2.005-3.07,2.166-7.356,6.034-9.258c0.11-0.27-0.166-0.27-0.281-0.386c-0.512,0.226-0.909,0.744-1.416,0.942
		c-0.083-0.513,0.43-1.063,0.667-1.615l-0.667-1.107c-3.356,1.499-6.585,3.395-9.935,4.888c-0.711-1.422-1.102-2.601-1.333-4.249
		c2.513-0.948,5.312-1.196,7.874-1.973l3.119,0.744c0.154-0.116,0.033-0.353,0.077-0.551c-0.557-0.083-1.107-0.231-1.62-0.474
		c0.513-0.507,1.736-0.115,1.62-1.069l-3.593,0.793c-2.353-0.793-5.075-1.146-7.555-1.89c0.347-1.614,0.623-3.229,1.411-4.65
		l9.935,5.009c0.865-0.513,0-1.422-0.198-2.094c-0.121-0.038-0.077-0.154-0.077-0.275c0.551,0.039,1.141,1.097,1.769,0.667
		c-0.705-0.865-1.691-1.455-2.523-2.16l-3.621-7.097c0.518-0.871,1.808-1.256,2.755-1.692l3.229,8.04
		c0-3.036-1.774-5.554-2.557-8.354c0.468-0.513,2.088,0,1.614-1.223c-5.246,0.986-9.885,5.4-11.66,10.398
		c-0.716,2.017-0.915,4.259-0.942,6.541c0.265,6.232,4.915,12.542,10.866,14.465c5.125,1.813,11.346,0.667,15.528-2.64
		c4.728-3.901,7.009-9.615,5.946-15.804c-0.783-4.761-4.177-9.412-8.707-11.621c-1.377-0.551-2.722-1.218-4.254-1.416
		L170.081,224.594z M164.328,237.433c-0.827,1.069-1.295,2.485-0.942,3.786c0.397,1.416,1.774,2.369,3.114,2.755
		c1.3,0,3.036-0.43,3.774-2.006c0.523-0.865,0.595-2.166,0.287-3.196c-0.479-1.493-2.05-2.281-3.51-2.48
		C166.141,236.414,165.116,236.766,164.328,237.433z M169.805,223.057c-0.237,4.414-0.71,8.706-1.339,12.96
		c-0.903,0.237-2.325-0.512-3.19,0.275c-0.788-4.331-1.179-8.508-1.537-13.043c-2.32,0-4.535,1.46-6.618,2.645
		c-5.323,3.742-7.682,9.924-7.092,16.388c0.468,5.637,4.408,10.8,9.373,13.401c5.483,2.992,13.203,2.005,18.052-1.703
		c5.549-4.331,8.271-11.225,6.42-18.234C182.418,229.36,176.186,223.966,169.805,223.057z M173.315,233.107
		c1.576-0.871,3.273-2.408,4.882-3.593c-0.43-0.865-1.333-1.455-2.039-2.006L173.315,233.107z M155.698,229.515l4.85,3.786
		l-2.761-5.599C156.927,228.06,156.459,228.842,155.698,229.515z M178.594,230.071c-2.436,2.639-6.656,3.703-7.483,7.483
		l9.456-4.728c-0.16-0.986-1.03-1.89-1.697-2.755H178.594z M162.598,237.433c-0.788-3.577-4.965-4.882-7.373-7.285l-1.769,2.562
		L162.598,237.433z M176.428,240.078c1.846,0.667,4.017,1.024,6.023,1.532v-2.838L176.428,240.078z M151.726,238.772
		c-0.16,0.992-0.039,1.78-0.077,2.838c2.006-0.358,4.133-0.827,6.139-1.417C155.781,239.72,153.654,239.251,151.726,238.772z
		 M155.417,250.322c2.612-2.64,7.224-3.747,7.775-7.875l-9.737,4.921L155.417,250.322z M178.985,250.123
		c0.396-0.942,1.614-1.691,1.697-2.832l-9.456-4.733C171.656,246.343,176.307,247.798,178.985,250.123z M162.239,254.735
		c0.672,0.551,1.774,0.507,2.645,0.788c0.435-3.587,2.755-7.285,1.025-10.795L162.239,254.735z M176.23,252.564
		c0.827-0.474,1.377-1.262,2.088-1.89l-4.849-3.582L176.23,252.564z M155.979,250.873l2.083,1.89l2.761-5.599
		C159.203,248.432,157.588,249.649,155.979,250.873z M165.628,255.523c0.948,0.16,1.769,0.038,2.838,0.077l-1.416-6.067
		L165.628,255.523z"/>
	<path fill="#383433" d="M470.741,277.118h-7.576c1.146-8.96,1.802-18.068,1.802-27.331c0-118.23-96.188-214.418-214.419-214.418
		c-118.224,0-214.418,96.188-214.418,214.418c0,9.263,0.656,18.371,1.802,27.331h-7.555c-13.462,0-24.472,12.597-24.472,27.998
		v30.721c0,15.396,11.01,28.009,24.472,28.009H69.12c37.999,60.233,105.099,100.359,181.428,100.359s143.435-40.126,181.439-100.359
		h38.754c13.439,0,24.455-12.613,24.455-28.009v-30.721C495.196,289.715,484.181,277.118,470.741,277.118z M49.873,249.787
		c0-53.61,20.868-103.997,58.773-141.914c37.917-37.9,88.303-58.773,141.902-58.773c53.6,0,103.991,20.873,141.902,58.773
		c37.895,37.917,58.773,88.303,58.773,141.914c0,9.219-0.661,18.338-1.879,27.331H51.757
		C50.539,268.125,49.873,259.006,49.873,249.787z M392.45,391.689c-37.911,37.895-88.303,58.773-141.902,58.773
		c-53.599,0-103.985-20.879-141.902-58.773c-8.657-8.656-16.371-17.997-23.209-27.844h330.229
		C408.833,373.692,401.107,383.033,392.45,391.689z M464.972,319.189c0,4.762-3.862,8.635-8.629,8.635s-8.635-3.873-8.635-8.635
		c0-4.766,3.868-8.635,8.635-8.635S464.972,314.424,464.972,319.189z M56.275,319.189c0,4.762-3.868,8.635-8.64,8.635
		c-4.761,0-8.635-3.873-8.635-8.635c0-4.766,3.874-8.635,8.635-8.635C52.407,310.555,56.275,314.424,56.275,319.189z"/>
	<g>
		<polygon fill="#383433" points="155.952,397.855 158.14,397.855 156.293,399.421 157.17,399.421 159.027,397.855 162.559,397.855 
			160.713,399.421 161.605,399.421 163.446,397.855 166.973,397.855 165.126,399.421 166.02,399.421 167.865,397.855 
			171.403,397.855 169.546,399.421 170.438,399.421 172.285,397.855 175.822,397.855 173.965,399.421 174.863,399.421 
			176.709,397.855 180.242,397.855 178.396,399.421 179.288,399.421 181.129,397.855 182.914,397.855 189.328,392.406 
			162.36,392.406 		"/>
		<polygon fill="#383433" points="162.36,389.231 189.328,389.231 182.914,383.787 181.316,383.787 179.288,382.046 
			178.396,382.046 180.435,383.787 176.897,383.787 174.863,382.046 173.965,382.046 176.01,383.787 172.488,383.787 
			170.438,382.046 169.546,382.046 171.59,383.787 168.058,383.787 166.02,382.046 165.126,382.046 167.166,383.787 
			163.639,383.787 161.605,382.046 160.713,382.046 162.752,383.787 159.214,383.787 157.17,382.046 156.293,382.046 
			158.333,383.787 155.952,383.787 		"/>
		<rect x="156.315" y="389.711" fill="#383433" width="51.285" height="2.056"/>
		<g>
			<polygon fill="#383433" points="344.968,389.458 333.335,379.572 323.885,379.572 335.523,389.458 			"/>
			<rect x="207.601" y="389.711" fill="#383433" width="137.549" height="2.056"/>
			<polygon fill="#383433" points="323.885,401.9 333.335,401.9 344.968,392.015 335.523,392.015 			"/>
		</g>
	</g>
	
		<text transform="matrix(1 0 0 1 129.5957 341.5332)" fill="#FFFFFF" font-family="'Haymaker'" font-size="65.2393" letter-spacing="1">URBIKE</text>
</g>
</svg>
